{
    "asset" : {
        "generator" : "Khronos glTF Blender I/O v1.4.40",
        "version" : "2.0"
    },
    "extensionsUsed" : [
        "KHR_lights_punctual"
    ],
    "extensionsRequired" : [
        "KHR_lights_punctual"
    ],
    "extensions" : {
        "KHR_lights_punctual" : {
            "lights" : [
                {
                    "color" : [
                        1,
                        1,
                        1
                    ],
                    "intensity" : 1,
                    "type" : "directional",
                    "name" : "Sun"
                }
            ]
        }
    },
    "scene" : 0,
    "scenes" : [
        {
            "name" : "Scene",
            "nodes" : [
                1,
                2,
                3,
                4,
                5,
                6,
                7,
                8,
                9,
                11
            ]
        }
    ],
    "nodes" : [
        {
            "camera" : 0,
            "name" : "Camera_Orientation",
            "rotation" : [
                -0.7071067690849304,
                0,
                0,
                0.7071067690849304
            ]
        },
        {
            "children" : [
                0
            ],
            "name" : "Camera",
            "rotation" : [
                0.38424593210220337,
                -0.06363502889871597,
                -0.02507711574435234,
                0.9206936359405518
            ],
            "translation" : [
                3.7980494499206543,
                4.485462665557861,
                0.29851293563842773
            ]
        },
        {
            "mesh" : 0,
            "name" : "text1",
            "rotation" : [
                0.3977718949317932,
                -0.0864286720752716,
                0.0217147059738636,
                0.9131462574005127
            ],
            "translation" : [
                1.7345515489578247,
                -0.7116178274154663,
                -6.917775630950928
            ]
        },
        {
            "mesh" : 1,
            "name" : "Text",
            "rotation" : [
                0.3292618691921234,
                -0.1035953015089035,
                0.036371033638715744,
                0.9378336668014526
            ],
            "scale" : [
                1,
                0.934918224811554,
                1
            ],
            "translation" : [
                2.8635902404785156,
                0.021026387810707092,
                -4.279763698577881
            ]
        },
        {
            "mesh" : 2,
            "name" : "Text.001",
            "rotation" : [
                0.3480674624443054,
                -0.06576856970787048,
                -0.024271758273243904,
                0.9348446130752563
            ],
            "translation" : [
                2.0451855659484863,
                -1.3593381643295288,
                -4.311321258544922
            ]
        },
        {
            "mesh" : 3,
            "name" : "fuegosArtificiales",
            "scale" : [
                0.0016203486593440175,
                0.0016203486593440175,
                0.0016203486593440175
            ],
            "translation" : [
                2.7065017223358154,
                1.8354383707046509,
                -2.5690391063690186
            ]
        },
        {
            "mesh" : 4,
            "name" : "particula",
            "scale" : [
                -0.012012549676001072,
                -0.012012549676001072,
                -0.012012549676001072
            ],
            "translation" : [
                5.017185211181641,
                2.259284257888794,
                -2.979680061340332
            ]
        },
        {
            "mesh" : 5,
            "name" : "fuegosArtificiales.001",
            "scale" : [
                0.006514835637062788,
                0.006514835637062788,
                0.006514835637062788
            ],
            "translation" : [
                4.769989967346191,
                1.581175446510315,
                -2.3094663619995117
            ]
        },
        {
            "mesh" : 6,
            "name" : "fuegosArtificiales.002",
            "scale" : [
                -0.001661368878558278,
                -0.001661368878558278,
                -0.001661368878558278
            ],
            "translation" : [
                3.6115970611572266,
                1.2926084995269775,
                -2.0283007621765137
            ]
        },
        {
            "mesh" : 7,
            "name" : "fuegosArtificiales.003",
            "scale" : [
                0.004157110117375851,
                0.004157110117375851,
                0.004157110117375851
            ],
            "translation" : [
                3.9738893508911133,
                2.1197903156280518,
                -2.8456153869628906
            ]
        },
        {
            "extensions" : {
                "KHR_lights_punctual" : {
                    "light" : 0
                }
            },
            "name" : "Sun_Orientation",
            "rotation" : [
                -0.7071067690849304,
                0,
                0,
                0.7071067690849304
            ]
        },
        {
            "children" : [
                10
            ],
            "name" : "Sun",
            "rotation" : [
                0.3416980504989624,
                -0.38362762331962585,
                -0.15145210921764374,
                0.8444729447364807
            ],
            "translation" : [
                3.5847361087799072,
                1.8586597442626953,
                -2.3347976207733154
            ]
        }
    ],
    "cameras" : [
        {
            "name" : "Camera",
            "perspective" : {
                "aspectRatio" : 1.7777777777777777,
                "yfov" : 0.40509143252534935,
                "zfar" : 100,
                "znear" : 0.10000000149011612
            },
            "type" : "perspective"
        }
    ],
    "materials" : [
        {
            "doubleSided" : true,
            "name" : "Material.001",
            "pbrMetallicRoughness" : {
                "baseColorFactor" : [
                    0.012286469340324402,
                    0.13563339412212372,
                    0.2541521191596985,
                    1
                ],
                "metallicFactor" : 0,
                "roughnessFactor" : 0.5
            }
        },
        {
            "doubleSided" : true,
            "name" : "Material.002",
            "pbrMetallicRoughness" : {
                "baseColorFactor" : [
                    0.012286469340324402,
                    0.13563339412212372,
                    0.2541521191596985,
                    1
                ],
                "metallicFactor" : 0,
                "roughnessFactor" : 0.5
            }
        },
        {
            "doubleSided" : true,
            "name" : "Material.003",
            "pbrMetallicRoughness" : {
                "baseColorFactor" : [
                    0.012286469340324402,
                    0.13563339412212372,
                    0.2541521191596985,
                    1
                ],
                "metallicFactor" : 0,
                "roughnessFactor" : 0.5
            }
        },
        {
            "doubleSided" : true,
            "emissiveFactor" : [
                1,
                1,
                1
            ],
            "name" : "Azul",
            "pbrMetallicRoughness" : {}
        }
    ],
    "meshes" : [
        {
            "name" : "Text.001",
            "primitives" : [
                {
                    "attributes" : {
                        "POSITION" : 0,
                        "NORMAL" : 1,
                        "TEXCOORD_0" : 2
                    },
                    "indices" : 3,
                    "material" : 0
                }
            ]
        },
        {
            "name" : "Text.002",
            "primitives" : [
                {
                    "attributes" : {
                        "POSITION" : 4,
                        "NORMAL" : 5,
                        "TEXCOORD_0" : 6
                    },
                    "indices" : 7,
                    "material" : 1
                }
            ]
        },
        {
            "name" : "Text.003",
            "primitives" : [
                {
                    "attributes" : {
                        "POSITION" : 8,
                        "NORMAL" : 9,
                        "TEXCOORD_0" : 10
                    },
                    "indices" : 11,
                    "material" : 2
                }
            ]
        },
        {
            "name" : "Sphere",
            "primitives" : [
                {
                    "attributes" : {
                        "POSITION" : 12,
                        "NORMAL" : 13,
                        "TEXCOORD_0" : 14
                    },
                    "indices" : 15,
                    "material" : 3
                }
            ]
        },
        {
            "name" : "Sphere.001",
            "primitives" : [
                {
                    "attributes" : {
                        "POSITION" : 16,
                        "NORMAL" : 17,
                        "TEXCOORD_0" : 18
                    },
                    "indices" : 15,
                    "material" : 3
                }
            ]
        },
        {
            "name" : "Sphere.003",
            "primitives" : [
                {
                    "attributes" : {
                        "POSITION" : 19,
                        "NORMAL" : 20,
                        "TEXCOORD_0" : 21
                    },
                    "indices" : 15
                }
            ]
        },
        {
            "name" : "Sphere.005",
            "primitives" : [
                {
                    "attributes" : {
                        "POSITION" : 22,
                        "NORMAL" : 23,
                        "TEXCOORD_0" : 24
                    },
                    "indices" : 15
                }
            ]
        },
        {
            "name" : "Sphere.007",
            "primitives" : [
                {
                    "attributes" : {
                        "POSITION" : 25,
                        "NORMAL" : 26,
                        "TEXCOORD_0" : 27
                    },
                    "indices" : 15
                }
            ]
        }
    ],
    "accessors" : [
        {
            "bufferView" : 0,
            "componentType" : 5126,
            "count" : 3514,
            "max" : [
                4.65854549407959,
                0.23999999463558197,
                0.3074245750904083
            ],
            "min" : [
                -0.005413766019046307,
                -0.23999999463558197,
                -0.5332559943199158
            ],
            "type" : "VEC3"
        },
        {
            "bufferView" : 1,
            "componentType" : 5126,
            "count" : 3514,
            "type" : "VEC3"
        },
        {
            "bufferView" : 2,
            "componentType" : 5126,
            "count" : 3514,
            "type" : "VEC2"
        },
        {
            "bufferView" : 3,
            "componentType" : 5123,
            "count" : 6528,
            "type" : "SCALAR"
        },
        {
            "bufferView" : 4,
            "componentType" : 5126,
            "count" : 1488,
            "max" : [
                1.9290410280227661,
                0.2800000011920929,
                0.28615620732307434
            ],
            "min" : [
                0.010440834797918797,
                -0.2800000011920929,
                -0.5355761647224426
            ],
            "type" : "VEC3"
        },
        {
            "bufferView" : 5,
            "componentType" : 5126,
            "count" : 1488,
            "type" : "VEC3"
        },
        {
            "bufferView" : 6,
            "componentType" : 5126,
            "count" : 1488,
            "type" : "VEC2"
        },
        {
            "bufferView" : 7,
            "componentType" : 5123,
            "count" : 2712,
            "type" : "SCALAR"
        },
        {
            "bufferView" : 8,
            "componentType" : 5126,
            "count" : 3549,
            "max" : [
                3.213379383087158,
                0.2800000011920929,
                0.2849961221218109
            ],
            "min" : [
                -0.005413766019046307,
                -0.2800000011920929,
                -0.5332559943199158
            ],
            "type" : "VEC3"
        },
        {
            "bufferView" : 9,
            "componentType" : 5126,
            "count" : 3549,
            "type" : "VEC3"
        },
        {
            "bufferView" : 10,
            "componentType" : 5126,
            "count" : 3549,
            "type" : "VEC2"
        },
        {
            "bufferView" : 11,
            "componentType" : 5123,
            "count" : 6468,
            "type" : "SCALAR"
        },
        {
            "bufferView" : 12,
            "componentType" : 5126,
            "count" : 1984,
            "max" : [
                1.000000238418579,
                1,
                1.0000003576278687
            ],
            "min" : [
                -0.9999998211860657,
                -1,
                -1
            ],
            "type" : "VEC3"
        },
        {
            "bufferView" : 13,
            "componentType" : 5126,
            "count" : 1984,
            "type" : "VEC3"
        },
        {
            "bufferView" : 14,
            "componentType" : 5126,
            "count" : 1984,
            "type" : "VEC2"
        },
        {
            "bufferView" : 15,
            "componentType" : 5123,
            "count" : 2880,
            "type" : "SCALAR"
        },
        {
            "bufferView" : 16,
            "componentType" : 5126,
            "count" : 1984,
            "max" : [
                1.000000238418579,
                1,
                1.0000003576278687
            ],
            "min" : [
                -0.9999998211860657,
                -1,
                -1
            ],
            "type" : "VEC3"
        },
        {
            "bufferView" : 17,
            "componentType" : 5126,
            "count" : 1984,
            "type" : "VEC3"
        },
        {
            "bufferView" : 18,
            "componentType" : 5126,
            "count" : 1984,
            "type" : "VEC2"
        },
        {
            "bufferView" : 19,
            "componentType" : 5126,
            "count" : 1984,
            "max" : [
                1.000000238418579,
                1,
                1.0000003576278687
            ],
            "min" : [
                -0.9999998211860657,
                -1,
                -1
            ],
            "type" : "VEC3"
        },
        {
            "bufferView" : 20,
            "componentType" : 5126,
            "count" : 1984,
            "type" : "VEC3"
        },
        {
            "bufferView" : 21,
            "componentType" : 5126,
            "count" : 1984,
            "type" : "VEC2"
        },
        {
            "bufferView" : 22,
            "componentType" : 5126,
            "count" : 1984,
            "max" : [
                1.000000238418579,
                1,
                1.0000003576278687
            ],
            "min" : [
                -0.9999998211860657,
                -1,
                -1
            ],
            "type" : "VEC3"
        },
        {
            "bufferView" : 23,
            "componentType" : 5126,
            "count" : 1984,
            "type" : "VEC3"
        },
        {
            "bufferView" : 24,
            "componentType" : 5126,
            "count" : 1984,
            "type" : "VEC2"
        },
        {
            "bufferView" : 25,
            "componentType" : 5126,
            "count" : 1984,
            "max" : [
                1.000000238418579,
                1,
                1.0000003576278687
            ],
            "min" : [
                -0.9999998211860657,
                -1,
                -1
            ],
            "type" : "VEC3"
        },
        {
            "bufferView" : 26,
            "componentType" : 5126,
            "count" : 1984,
            "type" : "VEC3"
        },
        {
            "bufferView" : 27,
            "componentType" : 5126,
            "count" : 1984,
            "type" : "VEC2"
        }
    ],
    "bufferViews" : [
        {
            "buffer" : 0,
            "byteLength" : 42168,
            "byteOffset" : 0
        },
        {
            "buffer" : 0,
            "byteLength" : 42168,
            "byteOffset" : 42168
        },
        {
            "buffer" : 0,
            "byteLength" : 28112,
            "byteOffset" : 84336
        },
        {
            "buffer" : 0,
            "byteLength" : 13056,
            "byteOffset" : 112448
        },
        {
            "buffer" : 0,
            "byteLength" : 17856,
            "byteOffset" : 125504
        },
        {
            "buffer" : 0,
            "byteLength" : 17856,
            "byteOffset" : 143360
        },
        {
            "buffer" : 0,
            "byteLength" : 11904,
            "byteOffset" : 161216
        },
        {
            "buffer" : 0,
            "byteLength" : 5424,
            "byteOffset" : 173120
        },
        {
            "buffer" : 0,
            "byteLength" : 42588,
            "byteOffset" : 178544
        },
        {
            "buffer" : 0,
            "byteLength" : 42588,
            "byteOffset" : 221132
        },
        {
            "buffer" : 0,
            "byteLength" : 28392,
            "byteOffset" : 263720
        },
        {
            "buffer" : 0,
            "byteLength" : 12936,
            "byteOffset" : 292112
        },
        {
            "buffer" : 0,
            "byteLength" : 23808,
            "byteOffset" : 305048
        },
        {
            "buffer" : 0,
            "byteLength" : 23808,
            "byteOffset" : 328856
        },
        {
            "buffer" : 0,
            "byteLength" : 15872,
            "byteOffset" : 352664
        },
        {
            "buffer" : 0,
            "byteLength" : 5760,
            "byteOffset" : 368536
        },
        {
            "buffer" : 0,
            "byteLength" : 23808,
            "byteOffset" : 374296
        },
        {
            "buffer" : 0,
            "byteLength" : 23808,
            "byteOffset" : 398104
        },
        {
            "buffer" : 0,
            "byteLength" : 15872,
            "byteOffset" : 421912
        },
        {
            "buffer" : 0,
            "byteLength" : 23808,
            "byteOffset" : 437784
        },
        {
            "buffer" : 0,
            "byteLength" : 23808,
            "byteOffset" : 461592
        },
        {
            "buffer" : 0,
            "byteLength" : 15872,
            "byteOffset" : 485400
        },
        {
            "buffer" : 0,
            "byteLength" : 23808,
            "byteOffset" : 501272
        },
        {
            "buffer" : 0,
            "byteLength" : 23808,
            "byteOffset" : 525080
        },
        {
            "buffer" : 0,
            "byteLength" : 15872,
            "byteOffset" : 548888
        },
        {
            "buffer" : 0,
            "byteLength" : 23808,
            "byteOffset" : 564760
        },
        {
            "buffer" : 0,
            "byteLength" : 23808,
            "byteOffset" : 588568
        },
        {
            "buffer" : 0,
            "byteLength" : 15872,
            "byteOffset" : 612376
        }
    ],
    "buffers" : [
        {
            "byteLength" : 628248,
            "uri" : "data:application/octet-stream;base64,"
        }
    ]
}
